ply
format ascii 1.0
comment VCGLIB generated
element camera 1
property float view_px
property float view_py
property float view_pz
property float x_axisx
property float x_axisy
property float x_axisz
property float y_axisx
property float y_axisy
property float y_axisz
property float z_axisx
property float z_axisy
property float z_axisz
property float focal
property float scalex
property float scaley
property float centerx
property float centery
property int viewportx
property int viewporty
property float k1
property float k2
property float k3
property float k4
element vertex 34
property float x
property float y
property float z
property float nx
property float ny
property float nz
property int flags
property uchar red
property uchar green
property uchar blue
property uchar alpha
property float quality
element face 50
property list uchar int vertex_indices
property int flags
property list uchar float texcoord
end_header
-0 -0 -0 1 0 0 0 1 0 0 0 1 0 0 0 0 0 0 0 0 0 0 0
0.532216 1.27644 -0.719285 1.276842 0.05670237 -0.8102895 512 255 255 255 255 0 
0.562971 1.43966 -0.644438 4.025552 1.106157 -2.70641 512 255 255 255 255 0 
0.510037 1.45468 -0.679498 0.6686046 0.327624 -1.06594 512 255 255 255 255 0 
0.503852 1.53723 -0.643868 1.653134 1.107245 -1.081474 512 255 255 255 255 0 
0.656533 1.23406 -0.422947 3.468968 -0.5991841 -1.693928 512 255 255 255 255 0 
0.393546 1.02849 -0.21639 0.27273 -0.306694 0.6634531 512 255 255 255 255 0 
0.575975 1.14094 -0.30598 -0.1696494 -3.075628 -0.5225674 512 255 255 255 255 0 
0.391203 1.06252 -0.202889 1.240844 -1.336906 2.89192 512 255 255 255 255 0 
0.662741 0.942394 0.07521 -2.222973 -2.404458 -0.9914522 512 255 255 255 255 0 
0.356793 1.0888 -0.17075 0.8355827 -0.8065708 1.699901 512 255 255 255 255 0 
0.74875 1.08318 -0.141018 3.530805 -2.692117 -2.652387 512 255 255 255 255 0 
0.826822 0.987903 0.075832 3.2326 -0.9505112 -1.399945 512 255 255 255 255 0 
0.493766 1.68767 -0.48387 1.755291 1.677912 -0.3652443 512 255 255 255 255 0 
0.582009 1.16093 0.102131 -3.925547 0.5864458 2.480739 512 255 255 255 255 0 
0.85698 0.87992 0.22776 1.96637 -2.111848 -0.714731 512 255 255 255 255 0 
0.407426 1.09447 -0.200405 1.729611 -1.625045 3.495723 512 255 255 255 255 0 
0.379935 1.37725 -0.131361 -0.05670136 0.3368517 1.749641 512 255 255 255 255 0 
0.474106 1.31962 -0.114643 -2.2721 -0.3095577 3.481971 512 255 255 255 255 0 
0.485915 1.60895 -0.184249 0.7313957 2.530988 1.865868 512 255 255 255 255 0 
0.422137 1.66504 -0.291202 0.497237 2.200081 0.614163 512 255 255 255 255 0 
0.726141 1.4476 -0.174788 3.692054 2.203079 0.7739823 512 255 255 255 255 0 
0.651325 1.32153 0.019498 0.3048719 3.281768 4.131402 512 255 255 255 255 0 
0.669085 0.902849 0.244717 -3.226297 -1.631173 -0.06127912 512 255 255 255 255 0 
0.809703 1.10664 0.270028 1.979231 2.879731 0.7959408 512 255 255 255 255 0 
0.670788 1.05909 0.478852 -3.325068 2.888761 -0.08367254 512 255 255 255 255 0 
0.679233 0.895337 0.600245 -0.8884645 -2.837067 0.6880692 512 255 255 255 255 0 
0.612676 1.09982 0.815444 -2.346209 1.668101 -1.542231 512 255 255 255 255 0 
0.787612 1.01966 0.704395 3.286479 1.024862 0.8018883 512 255 255 255 255 0 
0.676192 0.986709 0.977382 0.859984 -2.198529 0.8283634 512 255 255 255 255 0 
0.506233 1.09667 0.96657 -2.720775 -0.6673259 -0.7361282 512 255 255 255 255 0 
0.604753 1.25803 1.07276 0.4467296 2.36908 0.2912926 512 255 255 255 255 0 
0.675768 1.11085 0.912898 4.495576 3.532423 -0.8501753 512 255 255 255 255 0 
0.696908 1.08772 1.133 1.037077 -0.578427 1.24006 512 255 255 255 255 0 
0.470142 1.17914 1.1515 -1.07613 0.1993158 0.8280091 512 255 255 255 255 0 
3 4 0 1 64 6 0.500000 0.500000 0.500000 0.500000 0.500000 0.500000 
3 1 0 2 384 6 0.500000 0.500000 0.500000 0.500000 0.500000 0.500000 
3 4 1 20 0 6 0.500000 0.500000 0.500000 0.500000 0.500000 0.500000 
3 1 3 12 192 6 0.500000 0.500000 0.500000 0.500000 0.500000 0.500000 
3 4 20 10 0 6 0.500000 0.500000 0.500000 0.500000 0.500000 0.500000 
3 4 10 6 256 6 0.500000 0.500000 0.500000 0.500000 0.500000 0.500000 
3 20 1 12 0 6 0.500000 0.500000 0.500000 0.500000 0.500000 0.500000 
3 5 15 7 320 6 0.500000 0.500000 0.500000 0.500000 0.500000 0.500000 
3 6 10 8 0 6 0.500000 0.500000 0.500000 0.500000 0.500000 0.500000 
3 7 15 17 0 6 0.500000 0.500000 0.500000 0.500000 0.500000 0.500000 
3 9 7 17 320 6 0.500000 0.500000 0.500000 0.500000 0.500000 0.500000 
3 6 17 15 256 6 0.500000 0.500000 0.500000 0.500000 0.500000 0.500000 
3 10 11 8 128 6 0.500000 0.500000 0.500000 0.500000 0.500000 0.500000 
3 6 8 13 0 6 0.500000 0.500000 0.500000 0.500000 0.500000 0.500000 
3 11 10 20 0 6 0.500000 0.500000 0.500000 0.500000 0.500000 0.500000 
3 13 17 6 0 6 0.500000 0.500000 0.500000 0.500000 0.500000 0.500000 
3 11 14 22 256 6 0.500000 0.500000 0.500000 0.500000 0.500000 0.500000 
3 14 11 23 0 6 0.500000 0.500000 0.500000 0.500000 0.500000 0.500000 
3 8 22 13 64 6 0.500000 0.500000 0.500000 0.500000 0.500000 0.500000 
3 18 20 12 0 6 0.500000 0.500000 0.500000 0.500000 0.500000 0.500000 
3 18 16 17 192 6 0.500000 0.500000 0.500000 0.500000 0.500000 0.500000 
3 23 11 21 0 6 0.500000 0.500000 0.500000 0.500000 0.500000 0.500000 
3 19 18 12 320 6 0.500000 0.500000 0.500000 0.500000 0.500000 0.500000 
3 22 14 25 0 6 0.500000 0.500000 0.500000 0.500000 0.500000 0.500000 
3 11 20 21 0 6 0.500000 0.500000 0.500000 0.500000 0.500000 0.500000 
3 21 17 13 0 6 0.500000 0.500000 0.500000 0.500000 0.500000 0.500000 
3 18 17 21 0 6 0.500000 0.500000 0.500000 0.500000 0.500000 0.500000 
3 20 18 21 0 6 0.500000 0.500000 0.500000 0.500000 0.500000 0.500000 
3 21 13 23 0 6 0.500000 0.500000 0.500000 0.500000 0.500000 0.500000 
3 13 22 23 0 6 0.500000 0.500000 0.500000 0.500000 0.500000 0.500000 
3 24 23 22 0 6 0.500000 0.500000 0.500000 0.500000 0.500000 0.500000 
3 14 23 27 0 6 0.500000 0.500000 0.500000 0.500000 0.500000 0.500000 
3 25 14 27 0 6 0.500000 0.500000 0.500000 0.500000 0.500000 0.500000 
3 22 25 24 0 6 0.500000 0.500000 0.500000 0.500000 0.500000 0.500000 
3 27 23 24 0 6 0.500000 0.500000 0.500000 0.500000 0.500000 0.500000 
3 25 26 24 0 6 0.500000 0.500000 0.500000 0.500000 0.500000 0.500000 
3 26 27 24 0 6 0.500000 0.500000 0.500000 0.500000 0.500000 0.500000 
3 28 25 27 0 6 0.500000 0.500000 0.500000 0.500000 0.500000 0.500000 
3 26 31 27 0 6 0.500000 0.500000 0.500000 0.500000 0.500000 0.500000 
3 28 26 25 0 6 0.500000 0.500000 0.500000 0.500000 0.500000 0.500000 
3 27 31 28 0 6 0.500000 0.500000 0.500000 0.500000 0.500000 0.500000 
3 28 29 26 0 6 0.500000 0.500000 0.500000 0.500000 0.500000 0.500000 
3 29 28 32 0 6 0.500000 0.500000 0.500000 0.500000 0.500000 0.500000 
3 28 31 32 0 6 0.500000 0.500000 0.500000 0.500000 0.500000 0.500000 
3 30 31 26 0 6 0.500000 0.500000 0.500000 0.500000 0.500000 0.500000 
3 30 26 29 0 6 0.500000 0.500000 0.500000 0.500000 0.500000 0.500000 
3 30 29 33 0 6 0.500000 0.500000 0.500000 0.500000 0.500000 0.500000 
3 32 31 30 0 6 0.500000 0.500000 0.500000 0.500000 0.500000 0.500000 
3 33 29 32 0 6 0.500000 0.500000 0.500000 0.500000 0.500000 0.500000 
3 30 33 32 0 6 0.500000 0.500000 0.500000 0.500000 0.500000 0.500000 
